<?xml version="1.0" encoding="utf-8"?>
<!-- Generator: Adobe Illustrator 19.1.0, SVG Export Plug-In . SVG Version: 6.00 Build 0)  -->
<svg version="1.1" id="Layer_1" xmlns="http://www.w3.org/2000/svg" xmlns:xlink="http://www.w3.org/1999/xlink" x="0px" y="0px"
	 width="80px" height="80px" viewBox="-380 258.3 80 80" style="enable-background:new -380 258.3 80 80;" xml:space="preserve">
<style type="text/css">
	.st0{fill:#808080;}
	.st1{fill:#D9D9D9;}
</style>
<path class="st0" d="M-330.7,282.1c0,1.8,0,3.6,0,5.4c-1.3,0-2.6,0-3.9,0c0,0,0,0.1,0,0.1c-0.2,0-0.5,0-0.7,0
	c-0.3,0.1-0.5,0.3-0.9,0.4c-0.2,0.4-0.6,0.7-0.7,1.1c-0.4,1-0.1,3.7-0.1,5c2,0,4.1,0,6.1,0c-0.2,1.9-0.5,3.9-0.7,5.8
	c-1.8,0-3.6,0-5.3,0c0,5,0,10,0,15c-2.1,0-4.1,0-6.2,0c0-5,0-10,0-15c-1.8,0-3.6,0-5.3,0c0-1.9,0-3.9,0-5.8c1.8,0,3.6,0,5.3,0
	c0-2-0.3-5.5,0.2-7c0.9-2.6,2.6-4.1,5.3-4.9c0.2,0,0.5,0,0.7,0C-335.4,281.6-332.5,282-330.7,282.1z"/>
<path class="st1" d="M-340.2,338.3c-22,0-39.8-17.9-39.8-40s17.9-40,39.8-40c22,0,39.8,17.9,39.8,40S-318.2,338.3-340.2,338.3z
	 M-340.2,259.3c-21.4,0-38.9,17.5-38.9,39s17.4,39,38.9,39c21.4,0,38.9-17.5,38.9-39S-318.7,259.3-340.2,259.3z"/>
</svg>
