<?xml version="1.0" encoding="utf-8"?>
<!-- Generator: Adobe Illustrator 19.1.0, SVG Export Plug-In . SVG Version: 6.00 Build 0)  -->
<svg version="1.1" id="Layer_1" xmlns="http://www.w3.org/2000/svg" xmlns:xlink="http://www.w3.org/1999/xlink" x="0px" y="0px"
	 width="80px" height="80px" viewBox="-380 258.3 80 80" style="enable-background:new -380 258.3 80 80;" xml:space="preserve">
<style type="text/css">
	.st0{fill:#808080;}
	.st1{fill:#D9D9D9;}
</style>
<path class="st0" d="M-345.6,297.2v4.3h7.1c-0.3,1.9-2.1,5.4-7.1,5.4c-4.3,0-7.8-3.6-7.8-7.9s3.5-7.9,7.8-7.9c2.4,0,4.1,1,5,1.9
	l3.4-3.3c-2.2-2.1-5-3.3-8.4-3.3c-6.9,0-12.5,5.6-12.5,12.6s5.6,12.6,12.5,12.6c7.2,0,12-5.1,12-12.3c0-0.8-0.1-1.5-0.2-2.1H-345.6z
	 M-318.8,297.2h-3.6v-3.6h-3.6v3.6h-3.6v3.6h3.6v3.6h3.6v-3.6h3.6"/>
<path class="st1" d="M-340.2,338.3c-22,0-39.8-17.9-39.8-40s17.9-40,39.8-40c22,0,39.8,17.9,39.8,40S-318.2,338.3-340.2,338.3z
	 M-340.2,259.3c-21.4,0-38.9,17.5-38.9,39s17.4,39,38.9,39c21.4,0,38.9-17.5,38.9-39S-318.7,259.3-340.2,259.3z"/>
</svg>
