<?xml version="1.0" encoding="utf-8"?>
<!-- Generator: Adobe Illustrator 19.1.0, SVG Export Plug-In . SVG Version: 6.00 Build 0)  -->
<svg version="1.1" id="Layer_1" xmlns="http://www.w3.org/2000/svg" xmlns:xlink="http://www.w3.org/1999/xlink" x="0px" y="0px"
	 width="80px" height="80px" viewBox="-380 258.3 80 80" style="enable-background:new -380 258.3 80 80;" xml:space="preserve">
<style type="text/css">
	.st0{fill:#808080;}
	.st1{fill:#D9D9D9;}
</style>
<path class="st0" d="M-328.8,313.1h-22.7c-1.9,0-3.4-1.6-3.4-3.5v-22.8c0-1.9,1.5-3.5,3.4-3.5h22.7c1.9,0,3.4,1.5,3.4,3.5v22.8
	C-325.4,311.5-327,313.1-328.8,313.1 M-340.2,292.6c-3.2,0-5.6,2.6-5.6,5.7c0,3.2,2.6,5.7,5.6,5.7c3.2,0,5.6-2.6,5.6-5.7
	C-334.5,295.1-337,292.6-340.2,292.6 M-328.8,288c0-0.6-0.5-1.2-1.1-1.2h-3.4c-0.6,0-1.1,0.5-1.1,1.2v3.5c0,0.6,0.5,1.2,1.1,1.2h3.4
	c0.6,0,1.1-0.5,1.1-1.2V288L-328.8,288z M-328.8,296h-2.6c0.2,0.7,0.3,1.5,0.3,2.3c0,5-4,9.1-9.1,9.1s-9.1-4-9.1-9.1
	c0-0.8,0.1-1.6,0.3-2.3h-2.6v12.5c0,0.6,0.5,1.2,1.1,1.2h20.4c0.6,0,1.2-0.5,1.2-1.2L-328.8,296L-328.8,296z"/>
<path class="st1" d="M-340.2,338.3c-21.9,0-39.8-17.9-39.8-40s17.9-40,39.8-40c21.9,0,39.8,17.9,39.8,40S-318.2,338.3-340.2,338.3z
	 M-340.2,259.3c-21.4,0-38.8,17.5-38.8,39c0,21.5,17.4,39,38.8,39s38.8-17.5,38.8-39C-301.4,276.8-318.8,259.3-340.2,259.3z"/>
</svg>
