<?xml version="1.0" encoding="utf-8"?>
<!-- Generator: Adobe Illustrator 19.1.0, SVG Export Plug-In . SVG Version: 6.00 Build 0)  -->
<svg version="1.1" id="Layer_1" xmlns="http://www.w3.org/2000/svg" xmlns:xlink="http://www.w3.org/1999/xlink" x="0px" y="0px"
	 width="80px" height="80px" viewBox="-380 258.3 80 80" style="enable-background:new -380 258.3 80 80;" xml:space="preserve">
<style type="text/css">
	.st0{fill:#D9D9D9;}
	.st1{fill:#808080;}
</style>
<path class="st0" d="M-340.2,338.3c-21.9,0-39.8-17.9-39.8-40s17.9-40,39.8-40c21.9,0,39.8,17.9,39.8,40S-318.2,338.3-340.2,338.3z
	 M-340.2,259.3c-21.4,0-38.8,17.5-38.8,39c0,21.5,17.4,39,38.8,39s38.8-17.5,38.8-39C-301.4,276.8-318.8,259.3-340.2,259.3z"/>
<path class="st1" d="M-321.7,313.1h-6.9v-10.8c0-2.6-0.1-5.9-3.6-5.9c-3.6,0-4.1,2.8-4.1,5.7v11h-6.9V291h6.6v3.1h0.1
	c0.9-1.8,3.2-3.6,6.5-3.6c7,0,8.3,4.5,8.3,10.6V313.1L-321.7,313.1z"/>
<path class="st1" d="M-351,287.9c-2.2,0-4-1.8-4-4s1.8-4,4-4c2.2,0,4,1.8,4,4S-348.8,287.9-351,287.9z"/>
<rect x="-354.4" y="290.9" class="st1" width="6.9" height="22.1"/>
</svg>
