<?xml version="1.0" encoding="utf-8"?>
<!-- Generator: Adobe Illustrator 19.1.0, SVG Export Plug-In . SVG Version: 6.00 Build 0)  -->
<svg version="1.1" id="Layer_1" xmlns="http://www.w3.org/2000/svg" xmlns:xlink="http://www.w3.org/1999/xlink" x="0px" y="0px"
	 width="80px" height="80px" viewBox="-380 258.3 80 80" style="enable-background:new -380 258.3 80 80;" xml:space="preserve">
<style type="text/css">
	.st0{fill:#808080;}
	.st1{fill:#D9D9D9;}
</style>
<g>
	<path class="st0" d="M-355.6,291.8l15.2,15.2l0,0l5.6,1.3c0,0,0,0,0,0l0,0l6.3,1.4l-1.4-6.4l-1.3-5.6c0,0,0,0,0,0l0,0l0,0l-15-15.1
		C-350.3,284.4-353.7,287.7-355.6,291.8z M-331.9,298.6l1,4.4c-1.8,0.9-3.4,2.5-4.3,4.3l-4.3-1C-338,302.9-335.3,300.2-331.9,298.6z
		 M-338.9,318.2c-10.2,0-18.4-8.3-18.4-18.5c0-2.8,0.6-5.5,1.7-7.9l-3.9-3.9c2.3-3.8,5.5-7,9.3-9.3l4,4.1c2.2-1,4.7-1.5,7.3-1.5
		c10.2,0,18.4,8.3,18.4,18.5C-320.5,309.9-328.7,318.2-338.9,318.2z"/>
	<path class="st1" d="M-340.2,338.3c-22,0-39.8-17.9-39.8-40s17.9-40,39.8-40c22,0,39.8,17.9,39.8,40S-318.2,338.3-340.2,338.3z
		 M-340.2,259.3c-21.4,0-38.9,17.5-38.9,39s17.4,39,38.9,39c21.4,0,38.9-17.5,38.9-39S-318.7,259.3-340.2,259.3z"/>
</g>
</svg>
