<?xml version="1.0" encoding="utf-8"?>
<!-- Generator: Adobe Illustrator 19.1.0, SVG Export Plug-In . SVG Version: 6.00 Build 0)  -->
<svg version="1.1" id="Layer_1" xmlns="http://www.w3.org/2000/svg" xmlns:xlink="http://www.w3.org/1999/xlink" x="0px" y="0px"
	 width="80px" height="80px" viewBox="-380 258.3 80 80" style="enable-background:new -380 258.3 80 80;" xml:space="preserve">
<style type="text/css">
	.st0{fill:#808080;}
	.st1{fill:#D9D9D9;}
</style>
<g>
	<path class="st0" d="M-330,304.7c-1.9,1.2-3.9,2-6,2.5l5.7,5.8c1.2,1.2,1.2,3.1,0,4.3c-1.2,1.2-3.1,1.2-4.2,0l-5.6-5.7l-5.6,5.7
		c-0.6,0.6-1.4,0.9-2.1,0.9c-0.8,0-1.5-0.3-2.1-0.9c-1.2-1.2-1.2-3.1,0-4.3l5.7-5.8c-2.1-0.5-4.1-1.3-6-2.5
		c-1.4-0.9-1.8-2.7-0.9-4.2c0.9-1.4,2.7-1.8,4.1-0.9c4.2,2.6,9.6,2.6,13.8,0c1.4-0.9,3.3-0.5,4.1,0.9
		C-328.2,302-328.6,303.9-330,304.7z M-340.1,298.8c-5.7,0-10.3-4.6-10.3-10.3c0-5.7,4.6-10.3,10.3-10.3c5.7,0,10.3,4.6,10.3,10.3
		C-329.9,294.2-334.5,298.8-340.1,298.8z M-340.1,284.3c-2.3,0-4.2,1.9-4.2,4.3c0,2.3,1.9,4.3,4.2,4.3c2.3,0,4.2-1.9,4.2-4.3
		C-335.9,286.2-337.8,284.3-340.1,284.3z"/>
	<path class="st1" d="M-340.2,338.3c-22,0-39.8-17.9-39.8-40s17.9-40,39.8-40c22,0,39.8,17.9,39.8,40S-318.2,338.3-340.2,338.3z
		 M-340.2,259.3c-21.4,0-38.9,17.5-38.9,39s17.4,39,38.9,39c21.4,0,38.9-17.5,38.9-39S-318.7,259.3-340.2,259.3z"/>
</g>
</svg>
