<?xml version="1.0" encoding="utf-8"?>
<!-- Generator: Adobe Illustrator 19.1.0, SVG Export Plug-In . SVG Version: 6.00 Build 0)  -->
<svg version="1.1" id="Layer_1" xmlns="http://www.w3.org/2000/svg" xmlns:xlink="http://www.w3.org/1999/xlink" x="0px" y="0px"
	 width="80px" height="80px" viewBox="-380 258.3 80 80" style="enable-background:new -380 258.3 80 80;" xml:space="preserve">
<style type="text/css">
	.st0{fill:#D9D9D9;}
	.st1{fill:#808080;}
</style>
<path class="st0" d="M-340.2,338.3c-21.9,0-39.8-17.9-39.8-40s17.9-40,39.8-40c21.9,0,39.8,17.9,39.8,40S-318.2,338.3-340.2,338.3z
	 M-340.2,259.3c-21.4,0-38.8,17.5-38.8,39c0,21.5,17.4,39,38.8,39s38.8-17.5,38.8-39C-301.4,276.8-318.8,259.3-340.2,259.3z"/>
<path class="st1" d="M-343,305.2c-0.9,4.5-1.9,8.9-5,11.2c-1-6.8,1.4-12,2.5-17.4c-1.9-3.2,0.2-9.6,4.1-8c4.8,2-4.2,11.8,1.9,13
	c6.4,1.3,9-11.1,5-15.1c-5.7-5.8-16.7-0.1-15.3,8.2c0.3,2.1,2.5,2.7,0.9,5.4c-3.7-0.8-4.7-3.7-4.6-7.5c0.2-6.3,5.6-10.8,11.2-11.4
	c6.9-0.8,13.3,2.6,14.3,9c1,7.3-3.2,15.3-10.5,14.7C-340.5,307.1-341.4,306.1-343,305.2z"/>
</svg>
