<?xml version="1.0" encoding="utf-8"?>
<!-- Generator: Adobe Illustrator 19.1.0, SVG Export Plug-In . SVG Version: 6.00 Build 0)  -->
<svg version="1.1" id="Layer_1" xmlns="http://www.w3.org/2000/svg" xmlns:xlink="http://www.w3.org/1999/xlink" x="0px" y="0px"
	 width="80px" height="80px" viewBox="-380 258.3 80 80" style="enable-background:new -380 258.3 80 80;" xml:space="preserve">
<style type="text/css">
	.st0{fill:#D9D9D9;}
	.st1{fill:#808080;}
</style>
<path class="st0" d="M-340.2,338.3c-21.9,0-39.8-17.9-39.8-40s17.9-40,39.8-40c21.9,0,39.8,17.9,39.8,40S-318.2,338.3-340.2,338.3z
	 M-340.2,259.3c-21.4,0-38.8,17.5-38.8,39c0,21.5,17.4,39,38.8,39s38.8-17.5,38.8-39C-301.4,276.8-318.8,259.3-340.2,259.3z"/>
<path class="st1" d="M-336.5,313.9c-7,0-9.7-5.1-9.7-8.8v-10.8h-3.4v-4.2c5-1.8,6.2-6.3,6.5-8.9c0-0.2,0.2-0.2,0.2-0.2h4.8v8.4h6.6
	v4.9h-6.6v10.3c0,1.4,0.5,3.3,3.1,3.3h0.1c0.9,0,2.1-0.3,2.7-0.6l1.6,4.7c-0.6,0.9-3.3,1.9-5.7,1.9L-336.5,313.9L-336.5,313.9z"/>
</svg>
