<?xml version="1.0" encoding="utf-8"?>
<!-- Generator: Adobe Illustrator 19.1.0, SVG Export Plug-In . SVG Version: 6.00 Build 0)  -->
<svg version="1.1" id="Layer_1" xmlns="http://www.w3.org/2000/svg" xmlns:xlink="http://www.w3.org/1999/xlink" x="0px" y="0px"
	 width="80px" height="80px" viewBox="-380 258.3 80 80" style="enable-background:new -380 258.3 80 80;" xml:space="preserve">
<style type="text/css">
	.st0{fill:#D9D9D9;}
	.st1{fill:#808080;}
</style>
<path class="st0" d="M-340,338.3c-21.9,0-39.8-17.9-39.8-40s17.9-40,39.8-40s39.8,17.9,39.8,40S-318,338.3-340,338.3z M-340,259.3
	c-21.4,0-38.8,17.5-38.8,39s17.4,39,38.8,39s38.8-17.5,38.8-39C-301.2,276.8-318.6,259.3-340,259.3z"/>
<path class="st1" d="M-323.5,287c-1.2,0.5-2.5,0.9-3.9,1.1c1.4-0.8,2.5-2.2,3-3.8c-1.3,0.8-2.8,1.3-4.2,1.7c-1.2-1.3-3-2.2-4.9-2.2
	c-3.8,0-6.7,3-6.7,6.7c0,0.5,0.1,1.1,0.2,1.6c-5.6-0.3-10.6-3-13.8-7c-0.6,1-0.9,2.2-0.9,3.4c0,2.4,1.2,4.3,3,5.6
	c-1.1,0-2.2-0.3-3.1-0.9v0.1c0,3.3,2.3,6,5.4,6.6c-0.6,0.2-1.2,0.2-1.8,0.2c-0.4,0-0.9,0-1.3-0.1c0.9,2.7,3.4,4.6,6.3,4.6
	c-2.3,1.8-5.2,2.9-8.4,2.9c-0.6,0-1.1,0-1.6-0.1c3,1.9,6.5,3.1,10.3,3.1c12.3,0,19.2-10.3,19.2-19.2c0-0.3,0-0.6,0-0.9
	C-325.6,289.5-324.4,288.3-323.5,287L-323.5,287z"/>
</svg>
