<?xml version="1.0" encoding="utf-8"?>
<!-- Generator: Adobe Illustrator 19.1.0, SVG Export Plug-In . SVG Version: 6.00 Build 0)  -->
<svg version="1.1" id="Layer_1" xmlns="http://www.w3.org/2000/svg" xmlns:xlink="http://www.w3.org/1999/xlink" x="0px" y="0px"
	 width="80px" height="80px" viewBox="-380 258.3 80 80" style="enable-background:new -380 258.3 80 80;" xml:space="preserve">
<style type="text/css">
	.st0{fill:#808080;}
	.st1{fill:#D9D9D9;}
</style>
<path class="st0" d="M-340.5,309.4h2.3c0,0,0.7-0.1,1.1-0.5c0.3-0.4,0.3-1,0.3-1s0-3.2,1.4-3.6c1.4-0.5,3.3,3.1,5.3,4.4
	c1.5,1,2.6,0.8,2.6,0.8l5.2-0.1c0,0,2.7-0.2,1.4-2.3c-0.1-0.2-0.8-1.6-3.9-4.5c-3.3-3.1-2.9-2.6,1.1-7.9c2.4-3.2,3.4-5.2,3.1-6
	s-2.1-0.6-2.1-0.6h-5.9c0,0-0.4-0.1-0.8,0.1c-0.3,0.2-0.5,0.6-0.5,0.6s-0.9,2.5-2.2,4.6c-2.6,4.5-3.7,4.7-4.1,4.4
	c-1-0.6-0.7-2.6-0.7-4c0-4.3,0.7-6.2-1.3-6.6c-0.6-0.2-1.1-0.3-2.8-0.3c-2.1,0-3.9,0-4.9,0.5c-0.7,0.3-1.2,1.1-0.9,1.1
	c0.4,0,1.3,0.2,1.7,0.9c0.6,0.8,0.6,2.7,0.6,2.7s0.3,5.1-0.8,5.7c-0.8,0.4-1.9-0.5-4.2-4.5c-1.2-2.1-2.1-4.4-2.1-4.4
	s-0.2-0.4-0.5-0.7c-0.4-0.3-0.9-0.4-0.9-0.4h-5.6c0,0-0.8,0-1.1,0.4c-0.3,0.3,0,1,0,1s4.4,10.3,9.4,15.5
	C-345.7,309.7-340.5,309.4-340.5,309.4L-340.5,309.4z"/>
<path class="st1" d="M-340.2,338.3c-22,0-39.8-17.9-39.8-40s17.9-40,39.8-40c22,0,39.8,17.9,39.8,40S-318.2,338.3-340.2,338.3z
	 M-340.2,259.3c-21.4,0-38.9,17.5-38.9,39s17.4,39,38.9,39c21.4,0,38.9-17.5,38.9-39S-318.7,259.3-340.2,259.3z"/>
</svg>
