<?xml version="1.0" encoding="utf-8"?>
<!-- Generator: Adobe Illustrator 19.1.0, SVG Export Plug-In . SVG Version: 6.00 Build 0)  -->
<svg version="1.1" id="Layer_1" xmlns="http://www.w3.org/2000/svg" xmlns:xlink="http://www.w3.org/1999/xlink" x="0px" y="0px"
	 width="80px" height="80px" viewBox="-380 258.3 80 80" style="enable-background:new -380 258.3 80 80;" xml:space="preserve">
<style type="text/css">
	.st0{fill:#D9D9D9;enable-background:new    ;}
	.st1{fill:#808080;}
</style>
<g>
	<path class="st0" d="M-340.2,338.3c-22,0-39.8-17.9-39.8-40s17.9-40,39.8-40c22,0,39.8,17.9,39.8,40S-318.2,338.3-340.2,338.3z
		 M-340.2,259.3c-21.4,0-38.9,17.5-38.9,39s17.4,39,38.9,39c21.4,0,38.9-17.5,38.9-39S-318.7,259.3-340.2,259.3z"/>
	<g>
		<path class="st1" d="M-345.9,306.8c0.3-0.5,0.4-1.1,0.3-1.6s-0.5-0.9-1-1.2c-0.5-0.2-1.1-0.2-1.7,0s-1.1,0.6-1.4,1.1
			s-0.4,1.1-0.3,1.6s0.5,0.9,1,1.2c0.5,0.2,1.1,0.3,1.7,0.1S-346.2,307.3-345.9,306.8L-345.9,306.8z M-343.7,304
			c0.1-0.2,0.2-0.4,0.1-0.6s-0.2-0.4-0.4-0.4c-0.2-0.1-0.4-0.1-0.7,0c-0.2,0.1-0.4,0.2-0.5,0.4c-0.3,0.5-0.2,0.8,0.3,1
			c0.2,0.1,0.4,0.1,0.7,0C-344,304.3-343.8,304.2-343.7,304L-343.7,304z M-339.7,306.5c-0.7,1.6-1.9,2.7-3.7,3.5
			c-1.7,0.7-3.5,0.8-5.2,0.3s-2.8-1.5-3.4-2.9s-0.6-2.9,0.2-4.3c0.7-1.4,1.9-2.5,3.5-3.2s3.2-0.9,4.9-0.4c1.7,0.4,2.9,1.4,3.7,2.8
			S-339,304.9-339.7,306.5L-339.7,306.5z"/>
		<path class="st1" d="M-325.3,302.8c0,1-0.3,2.1-0.9,3.2s-1.4,2.2-2.5,3.2s-2.4,1.9-3.9,2.7c-1.5,0.8-3.2,1.4-5.2,1.9
			s-4.1,0.7-6.3,0.7s-4.3-0.3-6.4-0.8s-3.9-1.2-5.6-2.2c-1.6-0.9-3-2.1-4-3.5s-1.5-3-1.5-4.6c0-1.8,0.5-3.7,1.6-5.7s2.6-4,4.6-6
			c2.6-2.6,5.2-4.4,7.9-5.5s4.6-1,5.7,0.2c1,1,1.2,2.6,0.5,4.8c-0.1,0.2-0.1,0.4,0,0.5c0,0.1,0.1,0.1,0.2,0.2c0.1,0,0.2,0,0.3,0
			c0.1,0,0.2-0.1,0.3-0.1h0.1c2.1-0.9,4-1.4,5.7-1.4s2.8,0.5,3.5,1.4c0.7,1,0.7,2.3,0,4.1c0,0.2-0.1,0.4-0.1,0.5s0,0.2,0.1,0.3
			c0.1,0.1,0.2,0.1,0.3,0.2c0.1,0,0.2,0.1,0.4,0.1c0.9,0.3,1.7,0.6,2.4,1.1c0.7,0.4,1.3,1.1,1.9,1.9S-325.3,301.9-325.3,302.8
			L-325.3,302.8z M-332.4,302.8c-0.1-1.5-0.8-2.8-2.1-3.9c-1.2-1.1-2.8-2-4.8-2.5s-4.1-0.7-6.4-0.5c-3.4,0.4-6.3,1.4-8.6,3.3
			c-2.3,1.8-3.3,3.9-3.1,6.1c0.1,1.5,0.8,2.8,2.1,3.9c1.2,1.1,2.8,2,4.8,2.5s4.1,0.7,6.4,0.5c3.4-0.4,6.3-1.4,8.6-3.3
			C-333.3,307-332.2,305-332.4,302.8L-332.4,302.8z"/>
		<path class="st1" d="M-327,288.4c0.6,0.7,1.1,1.6,1.3,2.5c0.2,0.9,0.1,1.9-0.2,2.7c-0.1,0.4-0.4,0.6-0.7,0.8
			c-0.3,0.2-0.7,0.2-1,0.1c-0.4-0.1-0.6-0.4-0.8-0.7c-0.2-0.3-0.2-0.7-0.1-1c0.3-1,0.1-1.8-0.6-2.6c-0.7-0.7-1.5-1-2.5-0.8
			c-0.4,0.1-0.7,0-1-0.2s-0.5-0.5-0.6-0.9s0-0.7,0.2-1s0.5-0.5,0.9-0.6c0.9-0.2,1.8-0.2,2.8,0.1C-328.5,287.2-327.7,287.7-327,288.4
			L-327,288.4z M-322.8,284.6c1.3,1.5,2.2,3.2,2.6,5.1c0.4,2,0.3,3.8-0.3,5.6c-0.1,0.4-0.4,0.7-0.8,0.9c-0.4,0.2-0.8,0.2-1.2,0.1
			c-0.4-0.1-0.7-0.4-0.9-0.8c-0.2-0.4-0.2-0.8-0.1-1.2c0.4-1.3,0.5-2.6,0.2-4s-0.9-2.6-1.9-3.7s-2.1-1.8-3.4-2.2
			c-1.3-0.4-2.7-0.5-4-0.2c-0.4,0.1-0.8,0-1.2-0.2c-0.4-0.2-0.6-0.6-0.7-1s0-0.8,0.2-1.2c0.2-0.4,0.6-0.6,1-0.7
			c1.9-0.4,3.8-0.3,5.6,0.3C-325.8,282.1-324.2,283.1-322.8,284.6L-322.8,284.6z"/>
	</g>
</g>
</svg>
