<?xml version="1.0" encoding="utf-8"?>
<!-- Generator: Adobe Illustrator 19.1.0, SVG Export Plug-In . SVG Version: 6.00 Build 0)  -->
<svg version="1.1" id="Layer_1" xmlns="http://www.w3.org/2000/svg" xmlns:xlink="http://www.w3.org/1999/xlink" x="0px" y="0px"
	 width="80px" height="80px" viewBox="-380 258.3 80 80" style="enable-background:new -380 258.3 80 80;" xml:space="preserve">
<style type="text/css">
	.st0{fill:#D9D9D9;}
	.st1{fill:#808080;}
</style>
<g>
	<path class="st0" d="M-340.2,338.3c-22,0-39.8-17.9-39.8-40s17.9-40,39.8-40c22,0,39.8,17.9,39.8,40S-318.2,338.3-340.2,338.3z
		 M-340.2,259.3c-21.4,0-38.9,17.5-38.9,39s17.4,39,38.9,39c21.4,0,38.9-17.5,38.9-39S-318.7,259.3-340.2,259.3z"/>
	<path class="st1" d="M-343.2,287c-0.6,0-1.3,0.2-1.8,0.5c-1.2,0.8-1.9,3.4-2.7,5.2c-0.9,2-1.7,4-2.5,5.5c-2.4-2.7-4-8.6-6.8-10.8
		c-0.9-0.7-2.9-0.7-3.8,0c-2.4,1.8,0,5.1,1,6.8c2.2,3.7,4.5,7.7,6.4,11.2c-1.2,3.1-7.2,12,0.9,11.5c1.9-1.3,2.8-3.9,3.8-6.2
		c2.2-4.8,4-9,6.2-14c0.9-2.1,3.2-5.2,2.7-7.5C-340.2,288-341.7,287-343.2,287L-343.2,287z"/>
	<path class="st1" d="M-323.8,289c-1.2,0-2.3,0.6-2.8,1.6c-0.8,1-1.7,1.9-2.7,2.7c-0.5,0.6-1,1.1-1.6,1.6c-0.7,0.7-1.2,1.5-2.1,2
		v-5.5c0-3-5.6-3-5.7,0V307c0.2,1.1,0.8,2,2,2.1h1.7c1.2-0.2,1.8-0.9,2-2.1v-3.4c0-1.2-0.2-3.2,0.6-2c1.2,1.1,2.8,2.3,4.2,3.7
		c1.4,1.3,2.8,3.4,4.2,3.7c3,0.7,4.4-2.3,3.3-4.4c-1.2-2.2-4.6-3.7-6.1-5.7c1-2.3,6.4-3.7,5.9-7.6C-321,289.7-322.4,288.9-323.8,289
		L-323.8,289z"/>
</g>
</svg>
