<?xml version="1.0" encoding="utf-8"?>
<!-- Generator: Adobe Illustrator 19.1.0, SVG Export Plug-In . SVG Version: 6.00 Build 0)  -->
<svg version="1.1" id="Layer_1" xmlns="http://www.w3.org/2000/svg" xmlns:xlink="http://www.w3.org/1999/xlink" x="0px" y="0px"
	 width="80px" height="80px" viewBox="-380 258.3 80 80" style="enable-background:new -380 258.3 80 80;" xml:space="preserve">
<style type="text/css">
	.st0{fill:#D9D9D9;}
	.st1{fill:#808080;}
</style>
<g>
	<path class="st0" d="M-340.2,338.3c-21.9,0-39.8-17.9-39.8-40s17.9-40,39.8-40s39.8,17.9,39.8,40S-318.2,338.3-340.2,338.3z
		 M-340.2,259.3c-21.4,0-38.8,17.5-38.8,39s17.4,39,38.8,39s38.8-17.5,38.8-39C-301.4,276.8-318.8,259.3-340.2,259.3z"/>
	<path class="st1" d="M-344.8,303.2v-10.7l10.2,5.3L-344.8,303.2L-344.8,303.2z M-322.4,290.8c0,0-0.4-2.6-1.5-3.8
		c-1.5-1.5-3.1-1.5-3.8-1.6c-5.3-0.4-13.2-0.4-13.2-0.4l0,0c0,0-7.9,0-13.2,0.4c-0.8,0.1-2.4,0.1-3.8,1.6c-1.1,1.2-1.5,3.8-1.5,3.8
		s-0.4,3.1-0.4,6.1v2.9c0,3.1,0.4,6.1,0.4,6.1s0.4,2.6,1.5,3.8c1.5,1.5,3.4,1.5,4.1,1.6c3.1,0.3,12.8,0.4,12.8,0.4s7.9,0,13.2-0.4
		c0.8-0.1,2.4-0.1,3.8-1.6c1.1-1.2,1.5-3.8,1.5-3.8s0.4-3.1,0.4-6.1v-2.9C-322,293.8-322.4,290.8-322.4,290.8"/>
</g>
</svg>
